<svg width="58" height="58" viewBox="0 0 58 58" fill="none" xmlns="http://www.w3.org/2000/svg">
<circle cx="29" cy="29" r="29" fill="#1090CB"/>
<g clip-path="url(#clip0_2_131)">
<path d="M29.3981 21.1959C23.6624 21.1959 18.9961 25.8623 18.9961 31.598C18.9961 37.3337 23.6624 41.9999 29.3981 41.9999C35.1337 41.9999 39.8001 37.3336 39.8001 31.598C39.8001 25.8623 35.1338 21.1959 29.3981 21.1959ZM29.3981 40.4765C24.5025 40.4765 20.5195 36.4936 20.5195 31.598C20.5195 26.7023 24.5025 22.7194 29.3981 22.7194C34.2937 22.7194 38.2766 26.7023 38.2766 31.598C38.2766 36.4936 34.2937 40.4765 29.3981 40.4765Z" fill="white"/>
<path d="M33.9407 33.5324C33.6214 33.2586 33.1405 33.2953 32.8667 33.6147C31.9969 34.6287 30.7326 35.2103 29.398 35.2103C28.0636 35.2103 26.7993 34.6288 25.9295 33.6148C25.6556 33.2954 25.1748 33.2587 24.8555 33.5325C24.5362 33.8065 24.4993 34.2874 24.7732 34.6066C25.9328 35.9584 27.6185 36.7337 29.3981 36.7337C31.1777 36.7337 32.8635 35.9584 34.023 34.6065C34.2969 34.2873 34.26 33.8064 33.9407 33.5324Z" fill="white"/>
<path d="M25.1694 30.3999C25.59 30.3999 25.9311 30.0589 25.9311 29.6382C25.9311 29.394 26.1298 29.1953 26.374 29.1953C26.6182 29.1953 26.8169 29.394 26.8169 29.6382C26.8169 30.0589 27.158 30.3999 27.5786 30.3999C27.9993 30.3999 28.3404 30.0589 28.3404 29.6382C28.3404 28.554 27.4582 27.6719 26.374 27.6719C25.2898 27.6719 24.4077 28.554 24.4077 29.6382C24.4077 30.0589 24.7487 30.3999 25.1694 30.3999Z" fill="white"/>
<path d="M32.4222 27.6719C31.3379 27.6719 30.4558 28.554 30.4558 29.6382C30.4558 30.0589 30.7969 30.4 31.2175 30.4C31.6382 30.4 31.9792 30.0589 31.9792 29.6382C31.9792 29.394 32.178 29.1953 32.4222 29.1953C32.6664 29.1953 32.8651 29.394 32.8651 29.6382C32.8651 30.0589 33.2061 30.4 33.6268 30.4C34.0475 30.4 34.3885 30.0589 34.3885 29.6382C34.3885 28.5539 33.5064 27.6719 32.4222 27.6719Z" fill="white"/>
<path d="M35.6736 20.2789H36.7849C37.2056 20.2789 37.5466 19.9379 37.5466 19.5172C37.5466 19.0965 37.2056 18.7555 36.7849 18.7555H35.6736C35.253 18.7555 34.9119 19.0965 34.9119 19.5172C34.9119 19.9379 35.253 20.2789 35.6736 20.2789Z" fill="white"/>
<path d="M38.456 23.0342C38.8767 23.0342 39.2177 22.6932 39.2177 22.2725V21.1613C39.2177 20.7406 38.8767 20.3995 38.456 20.3995C38.0353 20.3995 37.6943 20.7406 37.6943 21.1613V22.2725C37.6943 22.6932 38.0353 23.0342 38.456 23.0342Z" fill="white"/>
<path d="M41.2383 18.7555H40.1271C39.7064 18.7555 39.3654 19.0965 39.3654 19.5172C39.3654 19.9379 39.7064 20.2789 40.1271 20.2789H41.2383C41.659 20.2789 42.0001 19.9379 42.0001 19.5172C42.0001 19.0965 41.659 18.7555 41.2383 18.7555Z" fill="white"/>
<path d="M38.456 18.6347C38.8767 18.6347 39.2177 18.2936 39.2177 17.873V16.7617C39.2177 16.341 38.8767 16 38.456 16C38.0353 16 37.6943 16.341 37.6943 16.7617V17.873C37.6943 18.2936 38.0353 18.6347 38.456 18.6347Z" fill="white"/>
<path d="M17.6489 19.7711H16.7617C16.341 19.7711 16 20.1122 16 20.5328C16 20.9535 16.341 21.2946 16.7617 21.2946H17.6489C18.0695 21.2946 18.4106 20.9535 18.4106 20.5328C18.4106 20.1122 18.0695 19.7711 17.6489 19.7711Z" fill="white"/>
<path d="M19.9986 22.9864V22.0992C19.9986 21.6786 19.6575 21.3375 19.2369 21.3375C18.8162 21.3375 18.4752 21.6786 18.4752 22.0992V22.9864C18.4752 23.4071 18.8162 23.7481 19.2369 23.7481C19.6575 23.7481 19.9986 23.4071 19.9986 22.9864Z" fill="white"/>
<path d="M20.8249 21.2946H21.712C22.1327 21.2946 22.4738 20.9535 22.4738 20.5328C22.4738 20.1122 22.1327 19.7711 21.712 19.7711H20.8249C20.4042 19.7711 20.0632 20.1122 20.0632 20.5328C20.0632 20.9535 20.4042 21.2946 20.8249 21.2946Z" fill="white"/>
<path d="M19.2369 19.728C19.6575 19.728 19.9986 19.3869 19.9986 18.9663V18.0791C19.9986 17.6584 19.6575 17.3174 19.2369 17.3174C18.8162 17.3174 18.4752 17.6584 18.4752 18.0791V18.9663C18.4752 19.3869 18.8162 19.728 19.2369 19.728Z" fill="white"/>
</g>
<defs>
<clipPath id="clip0_2_131">
<rect width="26" height="26" fill="white" transform="translate(16 16)"/>
</clipPath>
</defs>
</svg>
