<svg width="11" height="11" viewBox="0 0 11 11" fill="none" xmlns="http://www.w3.org/2000/svg">
<g clip-path="url(#clip0_2_242)">
<path d="M10.9972 10.9998V10.9993H11V6.96507C11 4.99148 10.5751 3.47119 8.26783 3.47119C7.15866 3.47119 6.41433 4.07986 6.11046 4.6569H6.07837V3.65544H3.89075V10.9993H6.16866V7.3629C6.16866 6.40544 6.35016 5.47961 7.53587 5.47961C8.70416 5.47961 8.72158 6.57228 8.72158 7.42432V10.9998H10.9972Z" fill="black"/>
<path d="M0.181519 3.65625H2.46219V11.0001H0.181519V3.65625Z" fill="black"/>
<path d="M1.32092 0C0.591708 0 0 0.591708 0 1.32092C0 2.05013 0.591708 2.65421 1.32092 2.65421C2.05013 2.65421 2.64183 2.05013 2.64183 1.32092C2.64138 0.591708 2.04967 0 1.32092 0V0Z" fill="black"/>
</g>
<defs>
<clipPath id="clip0_2_242">
<rect width="11" height="11" fill="white"/>
</clipPath>
</defs>
</svg>
