<svg width="58" height="58" viewBox="0 0 58 58" fill="none" xmlns="http://www.w3.org/2000/svg">
<circle cx="29" cy="29" r="29" fill="#9208D3"/>
<g clip-path="url(#clip0_2_154)">
<path d="M29.3981 21.196C23.6624 21.196 18.9961 25.8624 18.9961 31.5981C18.9961 37.3338 23.6624 42.0001 29.3981 42.0001C35.1337 42.0001 39.8001 37.3337 39.8001 31.5981C39.8001 25.8624 35.1338 21.196 29.3981 21.196ZM29.3981 40.4766C24.5025 40.4766 20.5195 36.4937 20.5195 31.5981C20.5195 26.7025 24.5025 22.7195 29.3981 22.7195C34.2937 22.7195 38.2766 26.7025 38.2766 31.5981C38.2766 36.4937 34.2937 40.4766 29.3981 40.4766Z" fill="white"/>
<path d="M33.9408 33.5324C33.6215 33.2586 33.1406 33.2953 32.8667 33.6147C31.9969 34.6287 30.7327 35.2103 29.3981 35.2103C28.0636 35.2103 26.7993 34.6288 25.9296 33.6148C25.6557 33.2954 25.1748 33.2587 24.8555 33.5325C24.5362 33.8065 24.4994 34.2874 24.7733 34.6066C25.9328 35.9584 27.6186 36.7337 29.3981 36.7337C31.1778 36.7337 32.8635 35.9584 34.023 34.6065C34.2969 34.2873 34.2601 33.8064 33.9408 33.5324Z" fill="white"/>
<path d="M25.1689 30.3999C25.5896 30.3999 25.9307 30.0589 25.9307 29.6382C25.9307 29.394 26.1294 29.1953 26.3736 29.1953C26.6178 29.1953 26.8165 29.394 26.8165 29.6382C26.8165 30.0589 27.1575 30.3999 27.5782 30.3999C27.9989 30.3999 28.3399 30.0589 28.3399 29.6382C28.3399 28.554 27.4578 27.6719 26.3736 27.6719C25.2893 27.6719 24.4072 28.554 24.4072 29.6382C24.4072 30.0589 24.7483 30.3999 25.1689 30.3999Z" fill="white"/>
<path d="M32.4222 27.6719C31.338 27.6719 30.4558 28.554 30.4558 29.6382C30.4558 30.0589 30.7969 30.4 31.2176 30.4C31.6382 30.4 31.9793 30.0589 31.9793 29.6382C31.9793 29.394 32.178 29.1953 32.4222 29.1953C32.6664 29.1953 32.8651 29.394 32.8651 29.6382C32.8651 30.0589 33.2061 30.4 33.6268 30.4C34.0475 30.4 34.3885 30.0589 34.3885 29.6382C34.3885 28.5539 33.5064 27.6719 32.4222 27.6719Z" fill="white"/>
<path d="M35.6737 20.2788H36.7849C37.2056 20.2788 37.5466 19.9378 37.5466 19.5171C37.5466 19.0964 37.2056 18.7554 36.7849 18.7554H35.6737C35.253 18.7554 34.912 19.0964 34.912 19.5171C34.912 19.9378 35.253 20.2788 35.6737 20.2788Z" fill="white"/>
<path d="M38.456 23.0343C38.8767 23.0343 39.2177 22.6933 39.2177 22.2726V21.1614C39.2177 20.7407 38.8767 20.3997 38.456 20.3997C38.0353 20.3997 37.6943 20.7407 37.6943 21.1614V22.2726C37.6943 22.6933 38.0353 23.0343 38.456 23.0343Z" fill="white"/>
<path d="M41.2383 18.7554H40.127C39.7064 18.7554 39.3653 19.0964 39.3653 19.5171C39.3653 19.9378 39.7064 20.2788 40.127 20.2788H41.2383C41.659 20.2788 42 19.9378 42 19.5171C42 19.0964 41.659 18.7554 41.2383 18.7554Z" fill="white"/>
<path d="M38.456 18.6347C38.8767 18.6347 39.2177 18.2936 39.2177 17.873V16.7617C39.2177 16.341 38.8767 16 38.456 16C38.0353 16 37.6943 16.341 37.6943 16.7617V17.873C37.6943 18.2936 38.0353 18.6347 38.456 18.6347Z" fill="white"/>
<path d="M17.6489 19.771H16.7617C16.341 19.771 16 20.112 16 20.5327C16 20.9534 16.341 21.2944 16.7617 21.2944H17.6489C18.0695 21.2944 18.4106 20.9534 18.4106 20.5327C18.4106 20.112 18.0695 19.771 17.6489 19.771Z" fill="white"/>
<path d="M19.999 22.9865V22.0994C19.999 21.6787 19.658 21.3376 19.2373 21.3376C18.8166 21.3376 18.4756 21.6787 18.4756 22.0994V22.9865C18.4756 23.4072 18.8166 23.7482 19.2373 23.7482C19.658 23.7482 19.999 23.4072 19.999 22.9865Z" fill="white"/>
<path d="M20.8252 21.2944H21.7123C22.133 21.2944 22.4741 20.9534 22.4741 20.5327C22.4741 20.112 22.133 19.771 21.7123 19.771H20.8252C20.4045 19.771 20.0635 20.112 20.0635 20.5327C20.0635 20.9534 20.4045 21.2944 20.8252 21.2944Z" fill="white"/>
<path d="M19.2373 19.728C19.658 19.728 19.999 19.3869 19.999 18.9663V18.0791C19.999 17.6584 19.658 17.3174 19.2373 17.3174C18.8166 17.3174 18.4756 17.6584 18.4756 18.0791V18.9663C18.4756 19.3869 18.8166 19.728 19.2373 19.728Z" fill="white"/>
</g>
<defs>
<clipPath id="clip0_2_154">
<rect width="26" height="26" fill="white" transform="translate(16 16)"/>
</clipPath>
</defs>
</svg>
