<svg width="44" height="12" viewBox="0 0 44 12" fill="none" xmlns="http://www.w3.org/2000/svg">
<path d="M2.736 9.28009H6.32V11.3921H-4.35114e-06V0.160089H2.736V9.28009ZM12.937 11.5041C11.881 11.5041 10.9103 11.2588 10.025 10.7681C9.15033 10.2774 8.45166 9.59476 7.929 8.72009C7.417 7.83476 7.161 6.84276 7.161 5.74409C7.161 4.64542 7.417 3.65876 7.929 2.78409C8.45166 1.90942 9.15033 1.22676 10.025 0.73609C10.9103 0.245423 11.881 8.96454e-05 12.937 8.96454e-05C13.993 8.96454e-05 14.9583 0.245423 15.833 0.73609C16.7183 1.22676 17.4117 1.90942 17.913 2.78409C18.425 3.65876 18.681 4.64542 18.681 5.74409C18.681 6.84276 18.425 7.83476 17.913 8.72009C17.401 9.59476 16.7077 10.2774 15.833 10.7681C14.9583 11.2588 13.993 11.5041 12.937 11.5041ZM12.937 9.00809C13.833 9.00809 14.5477 8.70942 15.081 8.11209C15.625 7.51476 15.897 6.72542 15.897 5.74409C15.897 4.75209 15.625 3.96276 15.081 3.37609C14.5477 2.77876 13.833 2.48009 12.937 2.48009C12.0303 2.48009 11.305 2.77342 10.761 3.36009C10.2277 3.94676 9.961 4.74142 9.961 5.74409C9.961 6.73609 10.2277 7.53076 10.761 8.12809C11.305 8.71476 12.0303 9.00809 12.937 9.00809ZM27.6591 3.71209C27.4565 3.33876 27.1631 3.05609 26.7791 2.86409C26.4058 2.66142 25.9631 2.56009 25.4511 2.56009C24.5658 2.56009 23.8565 2.85342 23.3231 3.44009C22.7898 4.01609 22.5231 4.78942 22.5231 5.76009C22.5231 6.79476 22.8005 7.60542 23.3551 8.19209C23.9205 8.76809 24.6938 9.05609 25.6751 9.05609C26.3471 9.05609 26.9125 8.88542 27.3711 8.54409C27.8405 8.20276 28.1818 7.71209 28.3951 7.07209H24.9231V5.05609H30.8751V7.60009C30.6725 8.28276 30.3258 8.91742 29.8351 9.50409C29.3551 10.0908 28.7418 10.5654 27.9951 10.9281C27.2485 11.2908 26.4058 11.4721 25.4671 11.4721C24.3578 11.4721 23.3658 11.2321 22.4911 10.7521C21.6271 10.2614 20.9498 9.58409 20.4591 8.72009C19.9791 7.85609 19.7391 6.86942 19.7391 5.76009C19.7391 4.65076 19.9791 3.66409 20.4591 2.80009C20.9498 1.92542 21.6271 1.24809 22.4911 0.768089C23.3551 0.277423 24.3418 0.0320892 25.4511 0.0320892C26.7951 0.0320892 27.9258 0.357423 28.8431 1.00809C29.7711 1.65876 30.3845 2.56009 30.6831 3.71209H27.6591ZM37.7026 11.5041C36.6466 11.5041 35.676 11.2588 34.7906 10.7681C33.916 10.2774 33.2173 9.59476 32.6946 8.72009C32.1826 7.83476 31.9266 6.84276 31.9266 5.74409C31.9266 4.64542 32.1826 3.65876 32.6946 2.78409C33.2173 1.90942 33.916 1.22676 34.7906 0.73609C35.676 0.245423 36.6466 8.96454e-05 37.7026 8.96454e-05C38.7586 8.96454e-05 39.724 0.245423 40.5986 0.73609C41.484 1.22676 42.1773 1.90942 42.6786 2.78409C43.1906 3.65876 43.4466 4.64542 43.4466 5.74409C43.4466 6.84276 43.1906 7.83476 42.6786 8.72009C42.1666 9.59476 41.4733 10.2774 40.5986 10.7681C39.724 11.2588 38.7586 11.5041 37.7026 11.5041ZM37.7026 9.00809C38.5986 9.00809 39.3133 8.70942 39.8466 8.11209C40.3906 7.51476 40.6626 6.72542 40.6626 5.74409C40.6626 4.75209 40.3906 3.96276 39.8466 3.37609C39.3133 2.77876 38.5986 2.48009 37.7026 2.48009C36.796 2.48009 36.0706 2.77342 35.5266 3.36009C34.9933 3.94676 34.7266 4.74142 34.7266 5.74409C34.7266 6.73609 34.9933 7.53076 35.5266 8.12809C36.0706 8.71476 36.796 9.00809 37.7026 9.00809Z" fill="#00329B"/>
</svg>
